<svg xmlns="http://www.w3.org/2000/svg" class="icon" viewBox="0 0 1024 1024">
  <path fill="none" d="M960 512a448 448 0 1 1-897-1 448 448 0 0 1 897 1"/>
  <path fill="#119da4ff" d="M508 718c0-9-5-13-14-18-27-9-54-9-76-31-5-9-5-18-9-27-9-9-31-14-45-18h-89c-14-5-23-22-32-36 0-4 0-13-9-13-9-5-18 4-27 0-4-5-4-9-4-14 0-13 9-27 18-36 13-9 27 5 40 5 5 0 5 0 9 4 14 5 18 23 18 36v9c0 5 4 5 9 5 4-23 4-45 9-68 0-26 27-53 49-62 9-5 14 4 23 0 26-9 94-36 80-72-9-31-36-63-71-58l-23 13c-13 9-40 36-54 36-22-4-22-36-18-49 5-18 45-76 72-67l18 18c9 4 22 4 36 4 4 0 9 0 13-4 5-5 5-5 5-9 0-14-14-27-23-36s-22-18-35-23c-45-13-117 5-153 36-36 32-62 85-80 130-9 27-18 63-23 94-4 23-9 41 5 63 13 27 40 54 67 72 18 13 54 13 72 35 13 18 9 41 9 63 0 27 17 49 26 72l14 45 4 35c27 14 50 27 81 36 4 0 22-27 22-31 14-13 23-31 36-40 9-5 18-9 27-18s14-27 18-41c5-9 9-26 5-40m8-412c5 0 9-5 18-9 14-9 27-22 41-31 13-9 27-23 36-32 13-9 22-27 26-40 5-9 18-27 14-40-5-9-27-14-36-18-36-9-67-14-103-14-13 0-31 5-36 18-4 23 14 18 32 23l4 40c4 22-9 36-9 58 0 14 0 36 9 45h4zm377 314c4-9 4-23 9-32 4-22 4-45 4-67 0-45-4-90-18-130-9-13-13-27-18-40-9-23-22-45-40-63-18-22-40-85-81-67-13 4-22 22-31 31l-27 41c-4 4-9 13-4 17 0 5 4 5 9 5 9 4 13 4 22 9 5 0 9 4 5 9 0 0 0 4-5 4-22 23-45 41-67 63-5 5-9 13-9 18s4 4 4 9c0 4-4 4-9 9-9 4-17 9-22 13-4 9 0 23-4 32-5 22-18 40-27 62l-23 41c0 18-4 31 5 45 22 31 62 13 94 26 9 5 18 5 22 14 14 13 14 36 18 49 5 18 9 36 18 54 5 22 14 45 18 63 40-32 76-68 103-112 27-32 40-68 54-103"/>
</svg>